HIERARCHY
ROOT SpineBase
{
  OFFSET 0.000000 0.000000 0.000000
  CHANNELS 6 Xposition Yposition Zposition Zrotation Xrotation Yrotation
  JOINT SpineMid
  {
    OFFSET 0.000000 32.620422 0.000000
    CHANNELS 3 Zrotation Xrotation Yrotation
    JOINT SpineShoulder
    {
      OFFSET 0.038898 24.213118 -0.763411
      CHANNELS 3 Zrotation Xrotation Yrotation
      JOINT Neck
      {
        OFFSET 0.040348 8.006834 -0.584679
        CHANNELS 3 Zrotation Xrotation Yrotation
        JOINT Head
        {
          OFFSET 5.137520 12.442713 4.626343
          CHANNELS 3 Zrotation Xrotation Yrotation
          End Site
          {
            OFFSET 0 0 0
          }
        }
      }
      JOINT ShoulderLeft
      {
        OFFSET -10.501586 -2.857821 -11.720740
        CHANNELS 3 Zrotation Xrotation Yrotation
        JOINT ElbowLeft
        {
          OFFSET -6.812837 -25.026514 -7.170564
          CHANNELS 3 Zrotation Xrotation Yrotation
          JOINT WristLeft
          {
            OFFSET 1.330747 -21.978123 -4.710808
            CHANNELS 3 Zrotation Xrotation Yrotation
            JOINT HandLeft
            {
              OFFSET 0.686917 -8.577698 0.722861
              CHANNELS 3 Zrotation Xrotation Yrotation
              JOINT HandTipLeft
              {
                OFFSET 0.623884 -8.070067 -0.465768
                CHANNELS 3 Zrotation Xrotation Yrotation
                End Site
                {
                  OFFSET 0 0 0
                }
              }
              JOINT ThumbLeft
              {
                OFFSET 4.243156 2.110330 2.106442
                CHANNELS 3 Zrotation Xrotation Yrotation
                End Site
                {
                  OFFSET 0 0 0
                }
              }
            }
          }
        }
      }
      JOINT ShoulderRight
      {
        OFFSET 11.963946 -4.671868 13.767735
        CHANNELS 3 Zrotation Xrotation Yrotation
        JOINT ElbowRight
        {
          OFFSET 2.267681 -25.891531 3.395402
          CHANNELS 3 Zrotation Xrotation Yrotation
          JOINT WristRight
          {
            OFFSET 1.065423 -25.180244 -2.674931
            CHANNELS 3 Zrotation Xrotation Yrotation
            JOINT HandRight
            {
              OFFSET -0.575430 -6.684756 -0.362546
              CHANNELS 3 Zrotation Xrotation Yrotation
              JOINT HandTipRight
              {
                OFFSET 0.839753 -6.018541 -1.309993
                CHANNELS 3 Zrotation Xrotation Yrotation
                End Site
                {
                  OFFSET 0 0 0
                }
              }
              JOINT ThumbRight
              {
                OFFSET -2.269016 -0.336800 -1.219044
                CHANNELS 3 Zrotation Xrotation Yrotation
                End Site
                {
                  OFFSET 0 0 0
                }
              }
            }
          }
        }
      }
    }
  }
  JOINT HipLeft
  {
    OFFSET -4.497741 1.854513 -8.390901
    CHANNELS 3 Zrotation Xrotation Yrotation
    JOINT KneeLeft
    {
      OFFSET -12.629655 -34.050760 -3.531758
      CHANNELS 3 Zrotation Xrotation Yrotation
      JOINT AnkleLeft
      {
        OFFSET -10.104619 -38.541024 4.765135
        CHANNELS 3 Zrotation Xrotation Yrotation
        JOINT FootLeft
        {
          OFFSET 1.582504 -7.652018 -6.789837
          CHANNELS 3 Zrotation Xrotation Yrotation
          End Site
          {
            OFFSET 0 0 0
          }
        }
      }
    }
  }
  JOINT HipRight
  {
    OFFSET 5.162942 -0.074484 1.212255
    CHANNELS 3 Zrotation Xrotation Yrotation
    JOINT KneeRight
    {
      OFFSET -6.660917 -37.498344 2.703397
      CHANNELS 3 Zrotation Xrotation Yrotation
      JOINT AnkleRight
      {
        OFFSET -8.124323 -35.618511 10.739854
        CHANNELS 3 Zrotation Xrotation Yrotation
        JOINT FootRight
        {
          OFFSET 2.351888 -8.082990 -4.852533
          CHANNELS 3 Zrotation Xrotation Yrotation
          End Site
          {
            OFFSET 0 0 0
          }
        }
      }
    }
  }
}
MOTION
Frames: 13
Frame Time: 0.033333
-32.395795 81.395576 344.564393 -0.000000 0.000000 -44.828901 -0.000000 0.000000 44.828901 -0.000000 0.000000 0.000000 -0.000000 0.000000 0.000000 0.000000 0.000000 0.000000 -0.000000 0.000000 0.000000 -0.000000 0.000000 0.000000 -0.000000 0.000000 0.000000 -0.000000 0.000000 0.000000 0.000000 0.000000 0.000000 0.000000 0.000000 0.000000 -0.000000 0.000000 0.000000 -0.000000 0.000000 0.000000 -0.000000 0.000000 0.000000 -0.000000 0.000000 0.000000 0.000000 0.000000 0.000000 0.000000 0.000000 0.000000 -0.000000 0.000000 44.828901 -0.000000 0.000000 0.000000 -0.000000 0.000000 0.000000 0.000000 0.000000 0.000000 -0.000000 0.000000 44.828901 -0.000000 0.000000 0.000000 -0.000000 0.000000 0.000000 0.000000 0.000000 0.000000
-32.423522 81.384105 344.617367 -0.012262 -0.033843 -44.744931 -0.015114 0.032669 44.744932 -0.000000 0.000000 0.000000 -0.000000 0.000000 0.000000 0.000000 0.000000 0.000000 -0.000000 0.000000 0.000000 -0.000000 0.000000 0.000000 -1.137188 0.395232 -0.060329 1.714166 0.397017 0.095891 0.000000 0.000000 0.000000 0.000000 0.000000 0.000000 -0.000000 0.000000 0.000000 -0.000000 0.000000 0.000000 -0.000000 0.000000 0.000000 -0.000000 0.000000 0.000000 0.000000 0.000000 0.000000 0.000000 0.000000 0.000000 -0.015114 0.032669 44.744932 -0.000000 0.000000 0.000000 -0.000000 0.000000 0.000000 0.000000 0.000000 0.000000 -0.015114 0.032669 44.744932 -0.000000 0.000000 0.000000 -0.000000 0.000000 0.000000 0.000000 0.000000 0.000000
-32.448857 81.373806 344.664835 -0.023725 -0.064025 -44.665359 -0.028133 0.062214 44.665361 -0.000000 0.000000 0.000000 -0.000000 0.000000 0.000000 0.000000 0.000000 0.000000 -0.000000 0.000000 0.000000 -0.000000 0.000000 0.000000 -2.065038 0.822046 -0.093588 3.099693 0.575919 0.173075 0.000000 0.000000 0.000000 0.000000 0.000000 0.000000 -0.000000 0.000000 0.000000 -0.000000 0.000000 0.000000 0.030098 -0.936421 0.079260 -0.027983 -0.353639 -0.259803 0.000000 0.000000 0.000000 0.000000 0.000000 0.000000 -0.028133 0.062214 44.665361 -0.000000 0.000000 0.000000 -0.062136 -1.207965 -0.197214 0.000000 0.000000 0.000000 -0.028133 0.062214 44.665361 -0.000000 0.000000 0.000000 -0.132510 0.950199 0.355482 0.000000 0.000000 0.000000
-32.471799 81.364678 344.706796 -0.034391 -0.090553 -44.590151 -0.039080 0.088631 44.590154 -0.000000 0.000000 0.000000 -0.000000 0.000000 0.000000 0.000000 0.000000 0.000000 -0.000000 0.000000 0.000000 -0.000000 0.000000 0.000000 -2.768601 1.276964 -0.100525 4.142507 0.537876 0.230853 0.000000 0.000000 0.000000 0.000000 0.000000 0.000000 -0.055653 -0.870020 -0.083842 0.054386 0.870100 0.083007 0.073071 -1.197614 0.099958 -0.230945 -0.818518 -0.346244 0.000000 0.000000 0.000000 0.000000 0.000000 0.000000 -0.039080 0.088631 44.590154 -0.000000 0.000000 0.000000 -0.062529 -1.740204 -0.309589 0.000000 0.000000 0.000000 -0.039080 0.088631 44.590154 -0.000000 0.000000 0.000000 -0.181838 1.227781 0.465589 0.000000 0.000000 0.000000
-32.492348 81.356721 344.743250 -0.044261 -0.113433 -44.519273 -0.047974 0.111913 44.519276 -0.000000 0.000000 0.000000 -0.000000 0.000000 0.000000 0.000000 0.000000 0.000000 -0.000000 0.000000 0.000000 -0.000000 0.000000 0.000000 -3.236580 1.756379 -0.082830 4.832034 0.284954 0.266712 0.000000 0.000000 0.000000 0.000000 0.000000 0.000000 -0.062652 -1.034264 -0.099256 0.060870 1.034370 0.098141 0.134164 -1.320729 0.108043 -0.557135 -1.483075 -0.407266 0.000000 0.000000 0.000000 0.000000 0.000000 0.000000 -0.047974 0.111913 44.519276 -0.000000 0.000000 0.000000 -0.042128 -2.223175 -0.430713 0.000000 0.000000 0.000000 -0.047974 0.111913 44.519276 -0.000000 0.000000 0.000000 -0.219120 1.375997 0.531031 0.000000 0.000000 0.000000
-32.510505 81.349936 344.774198 -0.053338 -0.132668 -44.452692 -0.054836 0.132056 44.452693 -0.000000 0.000000 0.000000 -0.000000 0.000000 0.000000 0.000000 0.000000 0.000000 -0.000000 0.000000 0.000000 -0.000000 0.000000 0.000000 -3.461454 2.256603 -0.043038 5.161127 -0.179995 0.276457 0.000000 0.000000 0.000000 0.000000 0.000000 0.000000 -0.063755 -1.135447 -0.108307 0.061621 1.135565 0.107065 0.213005 -1.306610 0.103436 -1.006997 -2.353597 -0.447728 0.000000 0.000000 0.000000 0.000000 0.000000 0.000000 -0.054836 0.132056 44.452693 -0.000000 0.000000 0.000000 -0.000689 -2.655971 -0.560303 0.000000 0.000000 0.000000 -0.054836 0.132056 44.452693 -0.000000 0.000000 0.000000 -0.244095 1.395718 0.551944 0.000000 0.000000 0.000000
-32.530043 81.338735 344.799123 -0.064486 -0.149356 -44.346501 -0.058284 0.151884 44.346495 -0.000000 0.000000 0.000000 -0.000000 0.000000 0.000000 0.000000 0.000000 0.000000 -0.000000 0.000000 0.000000 -0.000000 0.000000 0.000000 -3.093257 2.616952 0.019619 4.377060 -0.833824 0.223362 0.000000 0.000000 0.000000 0.000000 0.000000 0.000000 -0.073105 -1.249371 -0.119649 0.070513 1.249519 0.118083 0.412178 -1.123239 0.078444 -2.698276 -5.084167 -0.526877 0.000000 0.000000 0.000000 0.000000 0.000000 0.000000 -0.058284 0.151884 44.346495 -0.000000 0.000000 0.000000 0.047628 -3.056185 -0.689439 0.000000 0.000000 0.000000 -0.058284 0.151884 44.346495 -0.000000 0.000000 0.000000 -0.461051 1.406257 0.687374 0.000000 0.000000 0.000000
-32.543836 81.330666 344.817165 -0.075218 -0.163301 -44.247053 -0.060063 0.169462 44.247035 -0.000000 0.000000 0.000000 -0.000000 0.000000 0.000000 0.000000 0.000000 0.000000 -0.000000 0.000000 0.000000 -0.000000 0.000000 0.000000 -2.509866 2.850183 0.079505 3.028357 -1.329280 0.151798 0.000000 0.000000 0.000000 0.000000 0.000000 0.000000 -0.058073 -1.278486 -0.120073 0.055408 1.278604 0.118806 0.789754 -0.345464 -0.010722 -3.276446 -8.459352 -0.867180 0.000000 0.000000 0.000000 0.000000 0.000000 0.000000 -0.060063 0.169462 44.247035 -0.000000 0.000000 0.000000 0.079580 -3.539866 -0.822894 0.000000 0.000000 0.000000 -0.060063 0.169462 44.247035 -0.000000 0.000000 0.000000 -0.524041 1.048200 0.621805 0.000000 0.000000 0.000000
-32.554075 81.330272 344.832090 -0.082335 -0.175027 -44.183360 -0.062943 0.182898 44.183335 -0.000000 0.000000 0.000000 -0.000000 0.000000 0.000000 0.000000 0.000000 0.000000 -0.000000 0.000000 0.000000 -0.000000 0.000000 0.000000 -1.507037 2.503529 0.106751 1.607045 -1.374531 0.044039 0.000000 0.000000 0.000000 0.000000 0.000000 0.000000 -0.052220 -1.136314 -0.106757 0.050112 1.136409 0.105743 -0.000000 0.000000 0.000000 -2.560104 -8.738125 -0.877192 0.000000 0.000000 0.000000 0.000000 0.000000 0.000000 -0.062943 0.182898 44.183335 -0.000000 0.000000 0.000000 0.104559 -3.821214 -0.906486 0.000000 0.000000 0.000000 -0.062943 0.182898 44.183335 -0.000000 0.000000 0.000000 -0.000000 0.000000 0.000000 0.000000 0.000000 0.000000
-32.555115 81.334618 344.847548 -0.079484 -0.180588 -44.215052 -0.068966 0.184861 44.215038 -0.000000 0.000000 0.000000 -0.000000 0.000000 0.000000 0.000000 0.000000 0.000000 -0.000000 0.000000 0.000000 -0.000000 0.000000 0.000000 -0.646450 1.945367 0.112512 0.435007 -1.150407 -0.022658 0.000000 0.000000 0.000000 0.000000 0.000000 0.000000 -0.009948 -0.929201 -0.082683 -0.136354 -0.040373 0.058164 0.145948 0.969439 0.024258 -2.630253 -6.582716 -0.506124 0.000000 0.000000 0.000000 0.000000 0.000000 0.000000 -0.068966 0.184861 44.215038 -0.000000 0.000000 0.000000 0.271907 -3.936351 -1.078649 0.000000 0.000000 0.000000 -0.068966 0.184861 44.215038 -0.000000 0.000000 0.000000 -0.000000 0.000000 0.000000 0.000000 0.000000 0.000000
-32.554393 81.345540 344.862152 -0.074641 -0.182625 -44.262851 -0.074010 0.182882 44.262850 -0.000000 0.000000 0.000000 -0.000000 0.000000 0.000000 0.000000 0.000000 0.000000 -0.000000 0.000000 0.000000 -0.000000 0.000000 0.000000 0.757544 1.475438 0.172344 -0.762230 -1.473023 -0.191897 0.000000 0.000000 0.000000 0.000000 0.000000 0.000000 -0.000000 0.000000 0.000000 -0.215565 -0.980590 -0.020457 0.215247 0.980659 0.016770 -0.448286 -3.350501 -0.385823 0.000000 0.000000 0.000000 0.000000 0.000000 0.000000 -0.074010 0.182882 44.262850 -0.000000 0.000000 0.000000 0.227785 -3.781473 -1.005954 0.000000 0.000000 0.000000 -0.074010 0.182882 44.262850 -0.000000 0.000000 0.000000 -0.000000 0.000000 0.000000 0.000000 0.000000 0.000000
-32.561327 81.342523 344.887767 -0.079403 -0.194432 -44.270611 -0.078866 0.194650 44.270610 -0.000000 0.000000 0.000000 -0.000000 0.000000 0.000000 0.000000 0.000000 0.000000 -0.000000 0.000000 0.000000 -0.000000 0.000000 0.000000 2.062723 0.874726 0.227970 -2.066423 -0.865946 -0.259335 0.000000 0.000000 0.000000 0.000000 0.000000 0.000000 -0.000000 0.000000 0.000000 -0.220582 -0.805611 -0.012216 1.913817 1.795840 -0.206553 -1.086565 -3.044051 -0.233537 0.000000 0.000000 0.000000 0.000000 0.000000 0.000000 -0.078866 0.194650 44.270610 -0.000000 0.000000 0.000000 0.109514 -3.568818 -0.855530 0.000000 0.000000 0.000000 -0.078866 0.194650 44.270610 -0.000000 0.000000 0.000000 0.626206 -0.561192 -0.536884 0.000000 0.000000 0.000000
-32.562938 81.341258 344.900177 -0.080243 -0.194054 -44.266254 -0.077986 0.194972 44.266250 -0.000000 0.000000 0.000000 -0.000000 0.000000 0.000000 0.000000 0.000000 0.000000 -0.000000 0.000000 0.000000 -0.000000 0.000000 0.000000 5.306388 -0.974505 0.412789 -7.619466 0.508186 -0.195992 0.000000 0.000000 0.000000 0.000000 0.000000 0.000000 -0.000000 0.000000 0.000000 -0.000000 0.000000 0.000000 4.328399 2.982650 -0.605518 -2.168245 -2.545610 0.083404 0.000000 0.000000 0.000000 0.000000 0.000000 0.000000 -0.077986 0.194972 44.266250 -0.000000 0.000000 0.000000 0.034168 -3.199338 -0.708697 0.000000 0.000000 0.000000 -0.077986 0.194972 44.266250 -0.000000 0.000000 0.000000 0.843584 -0.726441 -0.713649 0.000000 0.000000 0.000000
